<?xml version="1.0" encoding="UTF-8"?>
<svg id="Layer_2" data-name="Layer 2" xmlns="http://www.w3.org/2000/svg" xmlns:xlink="http://www.w3.org/1999/xlink" viewBox="0 0 763.64 137.17">
  <defs>
    <style>
      .cls-1 {
        mask: url(#mask);
      }

      .cls-2 {
        fill-rule: evenodd;
      }

      .cls-2, .cls-3 {
        fill: #212121;
      }

      .cls-4 {
        mask: url(#mask-1);
      }

      .cls-5 {
        fill: #fff;
      }
    </style>
    <mask id="mask" x="-.18" y="0" width="125.7" height="137.32" maskUnits="userSpaceOnUse">
      <g id="mask0_91_92" data-name="mask0 91 92">
        <path class="cls-5" d="M125.52,0H-.18v137.32h125.7V0Z"/>
      </g>
    </mask>
    <mask id="mask-1" x="31.2" y="51.71" width="17.67" height="35.65" maskUnits="userSpaceOnUse">
      <g id="mask1_91_92" data-name="mask1 91 92">
        <path class="cls-5" d="M31.2,51.72h17.66s0,35.64,0,35.64h-17.66s0-35.64,0-35.64Z"/>
      </g>
    </mask>
  </defs>
  <g id="Layer_1-2" data-name="Layer 1">
    <g>
      <g class="cls-1">
        <g>
          <path class="cls-3" d="M13.86,76.77s21.75-1.56,21.91,22.87c-23.39-.15-21.91-22.87-21.91-22.87Z"/>
          <path class="cls-3" d="M36.98,101.16h-1.29c-7.61-.06-13.52-2.33-17.59-6.78-6.36-6.95-5.79-16.62-5.76-17.02l.08-1.12,1.11-.08s.31-.02.86-.02c3.75,0,22.44,1.14,22.58,23.71v1.31ZM14.88,78.73c.07,2.64.72,9.13,5.11,13.91,3.33,3.63,8.18,5.61,14.4,5.89-.77-17.74-14.48-19.69-19.51-19.8Z"/>
          <path class="cls-3" d="M39.86,53.55s16.1,14.68,0,31.74c-16.1-17.06,0-31.74,0-31.74Z"/>
          <g class="cls-4">
            <path class="cls-3" d="M40.04,87.16l-.92-.93c-5.41-5.49-8.03-11.35-7.81-17.41.35-9.48,7.56-15.91,7.87-16.18l.85-.74.85.74c.31.27,7.52,6.69,7.88,16.17.23,6.06-2.4,11.92-7.8,17.41l-.92.93ZM40.04,55.43c-1.81,1.92-5.91,6.97-6.14,13.5-.18,4.96,1.89,9.84,6.15,14.5,4.26-4.67,6.32-9.54,6.14-14.51-.24-6.53-4.34-11.58-6.15-13.5Z"/>
          </g>
          <path class="cls-3" d="M67.1,76.76s-22.05-1.55-22.2,22.88c23.72-.16,22.2-22.88,22.2-22.88Z"/>
          <path class="cls-3" d="M43.37,101.16v-1.31c.15-22.57,18.84-23.72,22.58-23.72.55,0,.86.02.86.02l1.11.08.08,1.12c.03.41.6,10.07-5.76,17.03-4.06,4.44-9.98,6.72-17.59,6.77h-1.29ZM65.47,78.72c-5.03.11-18.75,2.06-19.51,19.81,6.24-.28,11.08-2.27,14.42-5.91,4.39-4.8,5.02-11.26,5.09-13.9Z"/>
          <path class="cls-2" d="M29.12,115.73l-7.72-5.15c-1.04,2.59-2.12,5.16-3.19,7.57-1.47,3.31-3.26,6.3-5.37,8.97-.98,1.41-2.98,2.42-6,3.06-3.02.63-5.16.95-6.42.95-.28.71-.42,1.8-.42,3.27s.14,2.35.42,2.64c3.23-.14,5.89-.28,8-.42,1.07-.07,2.15-.14,3.22-.21h.04s.03,0,.03,0c1.01-.07,2.02-.13,3.02-.2,2.11-.14,4.71-.21,7.8-.21s5.57.07,7.47.21c.9.07,1.8.13,2.7.2h.03s.02,0,.02,0c.98.07,1.95.14,2.93.22,1.89.14,4.17.28,6.84.42.28-.7.35-1.79.21-3.27-.14-1.48-.35-2.36-.63-2.64-.56,0-2-.14-4.31-.42-2.32-.28-4.56-.88-6.74-1.8-2.17-.92-3.26-2.15-3.26-3.7,0-1.41.17-3.3.53-5.7.17-1.14.44-2.4.81-3.79Z"/>
          <path class="cls-2" d="M51.12,14.31l3.93,10.6,18.1,49.81,4,10.75s.46,1.16,1.37,3.48l.3.76h0c.86,2.2,1.92,4.9,3.17,8.11,1.4,3.59,2.81,7.28,4.21,11.08,1.4,3.8,2.56,7.21,3.48,10.23.91,3.03,1.37,5.17,1.37,6.44,0,1.41-.28,2.39-.85,2.96-.98.85-2.8,1.51-5.47,2-2.66.49-4.63.74-5.89.74-.56.57-.87,1.55-.94,2.96-.07,1.41.18,2.39.74,2.95,4.77-.28,8.74-.53,11.89-.74,3.16-.21,7.12-.32,11.89-.32,4.49,0,8.35.11,11.58.32,3.23.21,6.88.45,10.94.74.14-.28.28-1.16.42-2.64.14-1.48-.07-2.57-.63-3.27-.56,0-1.86-.25-3.9-.74-2.04-.49-4.07-1.3-6.1-2.43-2.04-1.13-3.41-2.46-4.11-4.01-.42-.84-2.17-5.34-5.26-13.5L63.47.42c-.28-.14-.46-.25-.53-.32-.07-.07-.24-.11-.53-.11-.98,0-2.42.71-4.31,2.11-1.9,1.41-3.13,2.67-3.68,3.8-1.03,2.6-2.12,5.4-3.3,8.4Z"/>
        </g>
      </g>
      <path class="cls-3" d="M179.61,60.87h-22.22l-4.6,10.44h-6.14l18.92-41.8h5.92l18.98,41.8h-6.26l-4.6-10.44ZM177.51,56.09l-9.01-20.48-9.02,20.48h18.03Z"/>
      <path class="cls-3" d="M196.67,29.52h5.98v36.6h22.62v5.2h-28.6V29.52Z"/>
      <path class="cls-3" d="M232.14,29.52h5.98v36.6h22.63v5.2h-28.6V29.52Z"/>
      <path class="cls-3" d="M297.95,66.12v5.2h-30.34V29.52h29.5v5.2h-23.52v12.84h20.96v5.08h-20.96v13.49h24.36Z"/>
      <path class="cls-3" d="M335.55,71.32l-9.01-12.84c-1.12.08-2,.12-2.63.12h-10.32v12.72h-5.98V29.52h16.3c5.41,0,9.67,1.3,12.78,3.89,3.11,2.59,4.66,6.15,4.66,10.68,0,3.23-.8,5.97-2.4,8.24-1.59,2.27-3.86,3.92-6.8,4.96l9.92,14.03h-6.52ZM323.73,53.52c3.78,0,6.67-.81,8.66-2.44,1.99-1.63,2.98-3.96,2.98-6.98s-.99-5.34-2.98-6.96c-1.99-1.61-4.87-2.42-8.66-2.42h-10.14v18.8h10.14Z"/>
      <path class="cls-3" d="M379.98,50.18h5.74v16.3c-2.08,1.72-4.49,3.04-7.23,3.95-2.74.91-5.6,1.37-8.59,1.37-4.23,0-8.03-.93-11.41-2.78-3.38-1.85-6.03-4.4-7.96-7.64-1.93-3.24-2.9-6.89-2.9-10.96s.96-7.72,2.9-10.98c1.93-3.26,4.6-5.81,8-7.64,3.4-1.83,7.23-2.74,11.5-2.74,3.34,0,6.37.55,9.09,1.64,2.73,1.1,5.05,2.69,6.97,4.8l-3.7,3.7c-3.35-3.22-7.39-4.84-12.12-4.84-3.19,0-6.05.69-8.58,2.06-2.52,1.37-4.5,3.29-5.94,5.74-1.43,2.44-2.14,5.2-2.14,8.26s.71,5.77,2.14,8.22c1.44,2.44,3.42,4.37,5.94,5.76,2.53,1.39,5.37,2.08,8.52,2.08,3.74,0,7-.89,9.79-2.68v-13.62Z"/>
      <path class="cls-3" d="M413.12,56.87v14.44h-5.9v-14.56l-16.6-27.24h6.38l13.38,22.04,13.44-22.04h5.9l-16.6,27.36Z"/>
      <path class="cls-3" d="M482.38,71.98l-5.56-5.56c-3.7,3.59-8.35,5.38-13.97,5.38-2.79,0-5.3-.45-7.53-1.37-2.23-.92-3.97-2.2-5.22-3.86-1.25-1.65-1.88-3.53-1.88-5.64,0-2.55.78-4.81,2.36-6.78,1.57-1.97,4.17-3.99,7.8-6.06-1.84-1.83-3.13-3.48-3.89-4.95-.75-1.48-1.13-3.01-1.13-4.61,0-2.83,1.02-5.09,3.07-6.8,2.05-1.71,4.79-2.56,8.22-2.56,3.19,0,5.71.78,7.58,2.32,1.87,1.55,2.82,3.68,2.82,6.38,0,2.12-.69,4.01-2.06,5.68-1.37,1.67-3.65,3.42-6.84,5.26l10.32,10.26c1.2-2.27,2.05-4.79,2.58-7.58l4.59,1.5c-.71,3.66-1.93,6.84-3.64,9.55l5.62,5.62-3.22,3.82ZM464.65,33.35c-1.87,0-3.33.47-4.38,1.4-1.05.93-1.58,2.16-1.58,3.66,0,1.08.29,2.12.86,3.11.58.99,1.7,2.34,3.38,4.05,2.75-1.55,4.65-2.88,5.7-3.99,1.05-1.12,1.58-2.34,1.58-3.65,0-1.39-.49-2.5-1.46-3.33-.98-.84-2.34-1.26-4.1-1.26ZM463.22,67.02c4.13,0,7.54-1.31,10.2-3.94l-11.88-11.82c-2.87,1.59-4.87,3.07-6,4.44-1.13,1.37-1.7,2.92-1.7,4.64,0,1.99.87,3.6,2.6,4.84,1.73,1.23,3.99,1.84,6.78,1.84Z"/>
      <path class="cls-3" d="M535.46,60.87h-22.21l-4.6,10.44h-6.14l18.92-41.8h5.92l18.98,41.8h-6.26l-4.6-10.44ZM533.37,56.09l-9.01-20.48-9.02,20.48h18.03Z"/>
      <path class="cls-3" d="M564.71,71.8c-3.14,0-6.17-.49-9.1-1.46-2.92-.97-5.22-2.24-6.9-3.8l2.21-4.66c1.59,1.44,3.62,2.6,6.11,3.5,2.49.9,5.05,1.34,7.67,1.34,3.46,0,6.05-.59,7.76-1.76,1.72-1.17,2.58-2.73,2.58-4.68,0-1.44-.48-2.6-1.42-3.5-.93-.89-2.09-1.58-3.46-2.06-1.37-.48-3.31-1.01-5.83-1.61-3.14-.76-5.67-1.52-7.61-2.28-1.93-.76-3.59-1.92-4.95-3.49-1.38-1.57-2.06-3.69-2.06-6.36,0-2.23.59-4.25,1.76-6.04,1.17-1.79,2.95-3.22,5.34-4.29,2.39-1.08,5.36-1.62,8.9-1.62,2.47,0,4.9.32,7.28.96,2.39.63,4.44,1.55,6.16,2.74l-1.98,4.77c-1.75-1.11-3.62-1.95-5.61-2.53-1.99-.58-3.94-.87-5.85-.87-3.39,0-5.93.62-7.62,1.86-1.68,1.23-2.53,2.82-2.53,4.78,0,1.43.48,2.59,1.43,3.49.96.9,2.14,1.59,3.56,2.1,1.41.5,3.33,1.02,5.76,1.58,3.14.76,5.67,1.52,7.58,2.28,1.91.75,3.55,1.9,4.92,3.46,1.37,1.55,2.06,3.64,2.06,6.26,0,2.19-.6,4.19-1.8,6-1.19,1.81-3,3.25-5.42,4.3-2.43,1.05-5.41,1.58-8.96,1.58Z"/>
      <path class="cls-3" d="M597.91,34.71h-14.32v-5.2h34.57v5.2h-14.32v36.6h-5.92v-36.6Z"/>
      <path class="cls-3" d="M660.6,29.52v41.8h-5.97v-18.62h-24v18.62h-5.98V29.52h5.98v17.98h24v-17.98h5.97Z"/>
      <path class="cls-3" d="M707.87,71.32l-.06-30.45-15.11,25.37h-2.75l-15.11-25.19v30.27h-5.74V29.52h4.9l17.44,29.38,17.19-29.38h4.9l.06,41.8h-5.73Z"/>
      <path class="cls-3" d="M752.77,60.87h-22.21l-4.6,10.44h-6.14l18.92-41.8h5.92l18.98,41.8h-6.26l-4.6-10.44ZM750.68,56.09l-9.01-20.48-9.02,20.48h18.03Z"/>
      <path class="cls-3" d="M163.1,120.17c-3.12,0-5.93-.69-8.43-2.06-2.51-1.38-4.47-3.29-5.89-5.73-1.42-2.44-2.13-5.18-2.13-8.21s.71-5.76,2.13-8.2c1.43-2.44,3.39-4.35,5.91-5.73,2.52-1.38,5.34-2.08,8.45-2.08,2.34,0,4.5.39,6.48,1.17,1.98.78,3.65,1.92,5.03,3.41l-2.11,2.11c-2.45-2.49-5.55-3.73-9.29-3.73-2.5,0-4.76.57-6.8,1.72-2.04,1.14-3.64,2.7-4.79,4.67-1.16,1.98-1.73,4.2-1.73,6.65s.58,4.68,1.73,6.66c1.15,1.98,2.75,3.54,4.79,4.67,2.04,1.14,4.3,1.71,6.8,1.71,3.77,0,6.87-1.25,9.29-3.77l2.11,2.1c-1.37,1.5-3.06,2.65-5.05,3.45-2,.79-4.16,1.18-6.49,1.18Z"/>
      <path class="cls-3" d="M201.49,111.5h-17.53l-3.78,8.4h-3.46l14.39-31.47h3.28l14.39,31.47h-3.51l-3.77-8.4ZM200.27,108.8l-7.55-16.91-7.55,16.91h15.1Z"/>
      <path class="cls-3" d="M235.46,119.91l-7.19-10.11c-.81.09-1.64.13-2.51.13h-8.45v9.98h-3.32v-31.47h11.78c4.01,0,7.16.96,9.43,2.88,2.28,1.92,3.42,4.56,3.42,7.92,0,2.45-.62,4.53-1.87,6.23-1.25,1.69-3.02,2.91-5.32,3.67l7.68,10.78h-3.64ZM225.67,107.1c3.11,0,5.49-.69,7.14-2.06,1.65-1.38,2.47-3.32,2.47-5.81s-.82-4.5-2.47-5.87c-1.65-1.37-4.03-2.05-7.14-2.05h-8.36v15.79h8.36Z"/>
      <path class="cls-3" d="M268.73,117.03v2.88h-22.24v-31.47h21.57v2.88h-18.25v11.2h16.27v2.83h-16.27v11.69h18.92Z"/>
      <path class="cls-3" d="M302.08,120.17c-3.12,0-5.94-.69-8.48-2.09-2.53-1.39-4.51-3.3-5.93-5.73-1.42-2.43-2.13-5.16-2.13-8.19s.71-5.75,2.13-8.17c1.43-2.43,3.4-4.35,5.93-5.74,2.54-1.39,5.36-2.09,8.48-2.09s5.92.69,8.43,2.08c2.5,1.38,4.47,3.29,5.91,5.73,1.44,2.44,2.16,5.18,2.16,8.2s-.72,5.77-2.16,8.21c-1.44,2.44-3.41,4.35-5.91,5.73-2.51,1.38-5.32,2.06-8.43,2.06ZM302.08,117.21c2.49,0,4.73-.56,6.74-1.68,2.01-1.13,3.58-2.69,4.72-4.67,1.15-1.99,1.72-4.22,1.72-6.68s-.57-4.68-1.72-6.67c-1.14-1.99-2.71-3.55-4.72-4.67-2.01-1.13-4.25-1.69-6.74-1.69s-4.75.57-6.77,1.69c-2.02,1.12-3.61,2.68-4.76,4.67-1.16,2-1.73,4.22-1.73,6.67s.58,4.69,1.73,6.68c1.15,1.99,2.74,3.55,4.76,4.67,2.03,1.12,4.28,1.68,6.77,1.68Z"/>
      <path class="cls-3" d="M329.37,91.31v12.36h16.27v2.88h-16.27v13.36h-3.32v-31.47h21.57v2.88h-18.24Z"/>
      <path class="cls-3" d="M409.47,88.43l-10.61,31.47h-3.51l-9.22-26.84-9.26,26.84h-3.46l-10.61-31.47h3.41l9.08,27.07,9.4-27.07h3.11l9.26,27.21,9.22-27.21h3.2Z"/>
      <path class="cls-3" d="M435.95,111.5h-17.53l-3.78,8.4h-3.46l14.39-31.47h3.29l14.39,31.47h-3.51l-3.77-8.4ZM434.72,108.8l-7.55-16.91-7.55,16.91h15.1Z"/>
      <path class="cls-3" d="M462.1,120.17c-3.12,0-5.93-.69-8.43-2.06-2.51-1.38-4.47-3.29-5.89-5.73-1.42-2.44-2.13-5.18-2.13-8.21s.71-5.76,2.13-8.2c1.43-2.44,3.39-4.35,5.91-5.73,2.52-1.38,5.34-2.08,8.45-2.08,2.34,0,4.5.39,6.48,1.17,1.98.78,3.65,1.92,5.03,3.41l-2.11,2.11c-2.45-2.49-5.55-3.73-9.29-3.73-2.5,0-4.76.57-6.8,1.72-2.04,1.14-3.64,2.7-4.79,4.67-1.16,1.98-1.73,4.2-1.73,6.65s.58,4.68,1.73,6.66c1.15,1.98,2.75,3.54,4.79,4.67,2.04,1.14,4.3,1.71,6.8,1.71,3.77,0,6.87-1.25,9.29-3.77l2.11,2.1c-1.37,1.5-3.06,2.65-5.05,3.45-2,.79-4.16,1.18-6.49,1.18Z"/>
      <path class="cls-3" d="M494.51,120.17c-3.12,0-5.94-.69-8.48-2.09-2.53-1.39-4.51-3.3-5.93-5.73-1.42-2.43-2.13-5.16-2.13-8.19s.71-5.75,2.13-8.17c1.43-2.43,3.4-4.35,5.93-5.74,2.54-1.39,5.36-2.09,8.48-2.09s5.93.69,8.43,2.08c2.5,1.38,4.47,3.29,5.91,5.73,1.44,2.44,2.17,5.18,2.17,8.2s-.72,5.77-2.17,8.21c-1.44,2.44-3.41,4.35-5.91,5.73-2.5,1.38-5.31,2.06-8.43,2.06ZM494.51,117.21c2.49,0,4.73-.56,6.74-1.68,2.01-1.13,3.58-2.69,4.72-4.67,1.15-1.99,1.72-4.22,1.72-6.68s-.57-4.68-1.72-6.67c-1.14-1.99-2.71-3.55-4.72-4.67-2.01-1.13-4.25-1.69-6.74-1.69s-4.74.57-6.77,1.69c-2.02,1.12-3.61,2.68-4.76,4.67-1.16,2-1.73,4.22-1.73,6.67s.58,4.69,1.73,6.68c1.15,1.99,2.74,3.55,4.76,4.67,2.03,1.12,4.28,1.68,6.77,1.68Z"/>
    </g>
  </g>
</svg>