<?xml version="1.0" encoding="UTF-8"?>
<svg id="Layer_2" data-name="Layer 2" xmlns="http://www.w3.org/2000/svg" xmlns:xlink="http://www.w3.org/1999/xlink" viewBox="0 0 187.91 187.91">
  <defs>
    <style>
      .cls-1 {
        mask: url(#mask);
      }

      .cls-2 {
        fill-rule: evenodd;
      }

      .cls-2, .cls-3 {
        fill: #fff;
      }

      .cls-4 {
        mask: url(#mask-1);
      }

      .cls-5 {
        fill: #1e0d1e;
      }
    </style>
    <mask id="mask" x="35.11" y="19.25" width="125.7" height="137.32" maskUnits="userSpaceOnUse">
      <g id="mask0_91_92" data-name="mask0 91 92">
        <path class="cls-3" d="M160.81,19.25H35.11v137.32h125.7V19.25Z"/>
      </g>
    </mask>
    <mask id="mask-1" x="66.49" y="70.96" width="17.67" height="35.65" maskUnits="userSpaceOnUse">
      <g id="mask1_91_92" data-name="mask1 91 92">
        <path class="cls-3" d="M66.49,70.97h17.66s0,35.64,0,35.64h-17.66s0-35.64,0-35.64Z"/>
      </g>
    </mask>
  </defs>
  <g id="Layer_1-2" data-name="Layer 1">
    <rect class="cls-5" width="187.91" height="187.91" rx="12" ry="12"/>
    <g class="cls-1">
      <g>
        <path class="cls-3" d="M49.15,96.02s21.75-1.56,21.91,22.87c-23.39-.15-21.91-22.87-21.91-22.87Z"/>
        <path class="cls-3" d="M72.27,120.41h-1.29c-7.61-.06-13.52-2.33-17.59-6.78-6.36-6.95-5.79-16.62-5.76-17.02l.08-1.12,1.11-.08s.31-.02.86-.02c3.75,0,22.44,1.14,22.58,23.71v1.31ZM50.17,97.98c.07,2.64.72,9.13,5.11,13.91,3.33,3.63,8.18,5.61,14.4,5.89-.77-17.74-14.48-19.69-19.51-19.8Z"/>
        <path class="cls-3" d="M75.15,72.8s16.1,14.68,0,31.74c-16.1-17.06,0-31.74,0-31.74Z"/>
        <g class="cls-4">
          <path class="cls-3" d="M75.33,106.41l-.92-.93c-5.41-5.49-8.03-11.35-7.81-17.41.35-9.48,7.56-15.91,7.87-16.18l.85-.74.85.74c.31.27,7.52,6.69,7.88,16.17.23,6.06-2.4,11.92-7.8,17.41l-.92.93ZM75.33,74.68c-1.81,1.92-5.91,6.97-6.14,13.5-.18,4.96,1.89,9.84,6.15,14.5,4.26-4.67,6.32-9.54,6.14-14.51-.24-6.53-4.34-11.58-6.15-13.5Z"/>
        </g>
        <path class="cls-3" d="M102.39,96.01s-22.05-1.55-22.2,22.88c23.72-.16,22.2-22.88,22.2-22.88Z"/>
        <path class="cls-3" d="M78.67,120.41v-1.31c.15-22.57,18.84-23.72,22.58-23.72.55,0,.86.02.86.02l1.11.08.08,1.12c.03.41.6,10.07-5.76,17.03-4.06,4.44-9.98,6.72-17.59,6.77h-1.29ZM100.76,97.97c-5.03.11-18.75,2.06-19.51,19.81,6.24-.28,11.08-2.27,14.42-5.91,4.39-4.8,5.02-11.26,5.09-13.9Z"/>
        <path class="cls-2" d="M64.41,134.98l-7.72-5.15c-1.04,2.59-2.12,5.16-3.19,7.57-1.47,3.31-3.26,6.3-5.37,8.97-.98,1.41-2.98,2.42-6,3.06-3.02.63-5.16.95-6.42.95-.28.71-.42,1.8-.42,3.27s.14,2.35.42,2.64c3.23-.14,5.89-.28,8-.42,1.07-.07,2.15-.14,3.22-.21h.04s.03,0,.03,0c1.01-.07,2.02-.13,3.02-.2,2.11-.14,4.71-.21,7.8-.21s5.57.07,7.47.21c.9.07,1.8.13,2.7.2h.03s.02,0,.02,0c.98.07,1.95.14,2.93.22,1.89.14,4.17.28,6.84.42.28-.7.35-1.79.21-3.27-.14-1.48-.35-2.36-.63-2.64-.56,0-2-.14-4.31-.42-2.32-.28-4.56-.88-6.74-1.8-2.17-.92-3.26-2.15-3.26-3.7,0-1.41.17-3.3.53-5.7.17-1.14.44-2.4.81-3.79Z"/>
        <path class="cls-2" d="M86.41,33.56l3.93,10.6,18.1,49.81,4,10.75s.46,1.16,1.37,3.48l.3.76h0c.86,2.2,1.92,4.9,3.17,8.11,1.4,3.59,2.81,7.28,4.21,11.08,1.4,3.8,2.56,7.21,3.48,10.23.91,3.03,1.37,5.17,1.37,6.44,0,1.41-.28,2.39-.85,2.96-.98.85-2.8,1.51-5.47,2-2.66.49-4.63.74-5.89.74-.56.57-.87,1.55-.94,2.96-.07,1.41.18,2.39.74,2.95,4.77-.28,8.74-.53,11.89-.74,3.16-.21,7.12-.32,11.89-.32,4.49,0,8.35.11,11.58.32,3.23.21,6.88.45,10.94.74.14-.28.28-1.16.42-2.64.14-1.48-.07-2.57-.63-3.27-.56,0-1.86-.25-3.9-.74-2.04-.49-4.07-1.3-6.1-2.43-2.04-1.13-3.41-2.46-4.11-4.01-.42-.84-2.17-5.34-5.26-13.5L98.76,19.67c-.28-.14-.46-.25-.53-.32-.07-.07-.24-.11-.53-.11-.98,0-2.42.71-4.31,2.11-1.9,1.41-3.13,2.67-3.68,3.8-1.03,2.6-2.12,5.4-3.3,8.4Z"/>
      </g>
    </g>
  </g>
</svg>