<?xml version="1.0" encoding="UTF-8"?>
<svg id="Layer_2" data-name="Layer 2" xmlns="http://www.w3.org/2000/svg" viewBox="0 0 227.67 217.76">
  <defs>
    <style>
      .cls-1 {
        fill: #212121;
      }
    </style>
  </defs>
  <g id="Layer_1-2" data-name="Layer 1">
    <path class="cls-1" d="M226.1,111.55l-1.57-5.61-1.82-4.3-2.87-9.92-1.18-12.39v-12.39l-1.43-4.31h-3l-3.4-1.17v-.1l-1.76-.22-4.95-2.68-3.59-2.35s-2.67-.32-2.87-.32h-3.33l-5.09.06s-5.67,1.56-6,1.56-4.44,2.22-4.44,2.22l-2.61-.39s-1.63-.85-1.76-1.24c-.13-.39-2.15-.98-2.15-.98,0,0-3.46-.58-3.78-.71-.33-.13-3.2,0-3.2,0,0,0-3.13.39-3.59.39s-2.67-1.37-2.67-1.37h-8.75s-2.61-1.56-2.74-3.65c-.13-2.09-4.05,0-4.05,0l-11.09-1.7-3.26-2.61-3.13-1.82h-4.56l-4.44-1.83-2.08-2.87V0h-52.49l-1.69,95.05H0v4.48l1.04.02,7.3,6.78,6.13,6.13,5.74,5.35,6.13,3.27,5.74,8.87,1.82,7.57,3.79,6.39,9.26,6.13,9.92,5.87h4.18l3.91-5.21,2.61-9.66,5.61-.26s-.91-2.08,0-2.08,4.96,1.43,4.96,1.43h10.95l6.52,6.52,4.7,4.44,4.18,9.52,5.35,10.18,9,9.39,4.83,6v10.31l6.39,9.79,6.13,1.69,10.18,5.35,9.65,1.17,4.05,3.27,3.92-2.35-3.79-16.18.26-7.57,2.2-9.18-2.49-3.57,4.05-.09,2.11-4.21-2.89-.78,2.89-2.15h3.92l1.51,1.03,5.14-3.14.19-3.18-1.95-2.59,6.45-1.42,1.72,1.52,4.74-2.45,7.5-3.44,3.59-5.16,5.61-11.54,1.89.33v3.91l4.77-.26,10.7-3.4.19-3.32,1.3-4.31,1.17-7.44,2.87-7.7-1.56-7.57ZM137.75,99.88l.44-.39.44.39c.16.14,3.93,3.5,4.12,8.45.12,3.17-1.25,6.23-4.08,9.1l-.48.49-.48-.49c-2.83-2.87-4.2-5.93-4.08-9.1.18-4.96,3.95-8.32,4.12-8.46ZM123.72,112.81l.04-.59.58-.04s.16-.01.45-.01c1.96,0,11.73.6,11.81,12.4v.69s-.67,0-.67,0c-3.98-.02-7.07-1.21-9.19-3.54-3.33-3.64-3.03-8.69-3.01-8.9ZM139.5,144c-1.4-.07-2.59-.15-3.58-.22-.51-.04-1.02-.08-1.53-.11h-.01s-.02,0-.02,0c-.47-.03-.94-.07-1.41-.1-.99-.07-2.29-.11-3.9-.11s-2.97.04-4.08.11c-.53.04-1.05.07-1.58.1h-.01s-.02,0-.02,0c-.56.04-1.12.07-1.69.11-1.1.07-2.49.15-4.18.22-.15-.15-.22-.61-.22-1.38s.07-1.34.22-1.71c.66,0,1.78-.17,3.35-.49,1.58-.33,2.62-.86,3.14-1.6,1.1-1.4,2.04-2.96,2.81-4.69.56-1.26,1.13-2.6,1.67-3.96l4.04,2.69c-.2.73-.34,1.39-.42,1.98-.18,1.25-.27,2.24-.27,2.98,0,.81.57,1.45,1.7,1.93,1.14.48,2.31.79,3.52.94,1.21.15,1.96.22,2.26.22.15.15.26.61.33,1.38.07.77.04,1.34-.11,1.71ZM149.81,121.7c-2.12,2.32-5.22,3.51-9.19,3.54h-.67s0-.68,0-.68c.07-11.8,9.84-12.4,11.8-12.4.29,0,.45.01.45.01l.58.04.04.59c.01.21.32,5.26-3.01,8.9ZM182.8,142.7c-.07.77-.15,1.23-.22,1.38-2.13-.15-4.03-.28-5.72-.39-1.69-.11-3.7-.17-6.05-.17-2.5,0-4.57.06-6.22.17-1.65.11-3.72.24-6.22.39-.29-.29-.42-.81-.38-1.54.04-.74.2-1.25.49-1.55.66,0,1.69-.13,3.08-.39,1.39-.26,2.35-.6,2.86-1.05.29-.3.44-.81.44-1.54,0-.66-.24-1.78-.72-3.37-.48-1.58-1.08-3.37-1.82-5.35-.73-1.99-1.47-3.91-2.2-5.79-.65-1.67-1.21-3.09-1.66-4.23h0s-.15-.4-.15-.4c-.48-1.21-.71-1.82-.71-1.82l-2.09-5.62-9.46-26.04-2.06-5.54c.61-1.57,1.19-3.03,1.72-4.39.29-.59.93-1.25,1.93-1.99.99-.74,1.74-1.1,2.26-1.1.15,0,.24.02.27.06.04.04.13.09.28.17l21.9,57.59c1.61,4.27,2.53,6.62,2.75,7.06.37.81,1.08,1.51,2.15,2.1,1.06.59,2.13,1.01,3.19,1.27,1.06.26,1.74.39,2.04.39.29.37.4.94.33,1.71Z"/>
  </g>
</svg>